<svg width="16" height="16" viewBox="0 0 16 16" fill="none" xmlns="http://www.w3.org/2000/svg">
<mask id="mask0_388_453" style="mask-type:luminance" maskUnits="userSpaceOnUse" x="0" y="0" width="16" height="16">
<path d="M0 0H16V16H0V0Z" fill="white"/>
</mask>
<g mask="url(#mask0_388_453)">
<path d="M9.17352 11.5V12.35H10.6735L8.07352 15.25L5.27352 12.35H6.87352V11.5H9.17352ZM4.47852 9.15H3.62852V10.65L0.728516 8.05L3.62852 5.25V6.85H4.47852V9.15ZM6.88452 4.5V3.65H5.38452L7.98352 0.75L10.7845 3.65H9.18452V4.5H6.88452ZM11.5225 6.75H12.3735V5.25L15.2725 7.85L12.3735 10.65V9.05H11.5225V6.75ZM5.36152 5H10.6405V6.76H10.4005C10.3915 6.50476 10.3215 6.2554 10.1964 6.03273C10.0713 5.81006 9.89477 5.62054 9.68152 5.48L8.72152 5.32V9.96C8.68941 10.186 8.74682 10.4157 8.88152 10.6C9.09652 10.733 9.34952 10.789 9.60152 10.76V11H6.48152V10.76C6.70656 10.7775 6.9312 10.7214 7.12152 10.6C7.25534 10.4153 7.31266 10.186 7.28152 9.96V5.32L6.32152 5.48C6.10315 5.61525 5.92254 5.80352 5.79648 6.02732C5.67042 6.25111 5.60301 6.50316 5.60052 6.76H5.36152V5Z" fill="black"/>
</g>
</svg>
