<svg width="16" height="16" viewBox="0 0 16 16" fill="none" xmlns="http://www.w3.org/2000/svg">
<mask id="mask0_388_728" style="mask-type:luminance" maskUnits="userSpaceOnUse" x="0" y="0" width="16" height="16">
<path d="M0 0H16V16H0V0Z" fill="white"/>
</mask>
<g mask="url(#mask0_388_728)">
<mask id="mask1_388_728" style="mask-type:luminance" maskUnits="userSpaceOnUse" x="0" y="0" width="16" height="16">
<path d="M0.349609 0.299805H15.6496V15.6998H0.349609V0.299805Z" fill="white"/>
</mask>
<g mask="url(#mask1_388_728)">
<path d="M9.13836 11.5391V12.3891H10.6384L8.03836 15.2891L5.23836 12.3891H6.83836V11.5391H9.13836ZM4.44336 9.18906H3.59336V10.6891L0.693359 8.08906L3.59336 5.28906V6.88906H4.44336V9.18906ZM6.84936 4.53906V3.68906H5.34936L7.94936 0.789062L10.7494 3.68906H9.14936V4.53906H6.84936ZM11.4884 6.78906H12.3384V5.28906L15.2384 7.88906L12.3384 10.6891V9.08906H11.4884V6.78906ZM10.5494 10.9181H10.4044L8.23836 9.08906L8.74336 8.57706L10.6224 10.7711C10.6254 10.8 10.6202 10.8291 10.6072 10.8552C10.5943 10.8812 10.5742 10.903 10.5494 10.9181ZM9.39336 7.40606L9.24936 7.26006L8.96036 7.11406L8.67136 7.26006L7.01036 5.87006C7.07637 5.80118 7.11322 5.70947 7.11322 5.61406C7.11322 5.51866 7.07637 5.42694 7.01036 5.35806L6.79436 5.21206C6.7549 5.17594 6.70335 5.15591 6.64986 5.15591C6.59637 5.15591 6.54482 5.17594 6.50536 5.21206L4.91636 6.82106C4.88058 6.86148 4.86082 6.91359 4.86082 6.96756C4.86082 7.02154 4.88058 7.07365 4.91636 7.11406L5.06036 7.26006L5.34936 7.40606H5.56636L6.93836 9.01606C6.87189 9.08471 6.83472 9.17651 6.83472 9.27206C6.83472 9.36761 6.87189 9.45942 6.93836 9.52806L7.08236 9.67406C7.12182 9.71018 7.17337 9.73022 7.22686 9.73022C7.28035 9.73022 7.3319 9.71018 7.37136 9.67406L9.39336 7.62606C9.41257 7.59259 9.42268 7.55466 9.42268 7.51606C9.42268 7.47746 9.41257 7.43954 9.39336 7.40606Z" fill="black"/>
</g>
</g>
</svg>
