<svg width="16" height="16" viewBox="0 0 16 16" fill="none" xmlns="http://www.w3.org/2000/svg">
<mask id="mask0_388_660" style="mask-type:luminance" maskUnits="userSpaceOnUse" x="0" y="0" width="16" height="16">
<path d="M0 0H16V16H0V0Z" fill="white"/>
</mask>
<g mask="url(#mask0_388_660)">
<path d="M10 8C10.0001 7.73729 10.0519 7.47717 10.1525 7.23448C10.2531 6.99179 10.4005 6.7713 10.5863 6.58558C10.7721 6.39986 10.9927 6.25256 11.2354 6.15209C11.4781 6.05161 11.7383 5.99993 12.001 6C12.2637 6.00007 12.5238 6.05187 12.7665 6.15247C13.0092 6.25307 13.2297 6.40048 13.4154 6.58629C13.6011 6.7721 13.7484 6.99267 13.8489 7.2354C13.9494 7.47814 14.0011 7.73829 14.001 8.001C14.0009 8.53157 13.79 9.04035 13.4147 9.41542C13.0395 9.79049 12.5306 10.0011 12 10.001C11.4694 10.0009 10.9607 9.78997 10.5856 9.41471C10.2105 9.03945 9.99987 8.53057 10 8ZM2 8C2.00007 7.73729 2.05188 7.47717 2.15247 7.23448C2.25307 6.99179 2.40048 6.7713 2.58629 6.58558C2.7721 6.39986 2.99267 6.25256 3.2354 6.15209C3.47814 6.05161 3.73829 5.99993 4.001 6C4.26371 6.00007 4.52383 6.05187 4.76652 6.15247C5.00921 6.25307 5.2297 6.40048 5.41542 6.58629C5.60114 6.7721 5.74844 6.99267 5.84891 7.2354C5.94939 7.47814 6.00107 7.73829 6.001 8.001C6.00087 8.53157 5.78997 9.04035 5.41471 9.41542C5.03945 9.79049 4.53057 10.0011 4 10.001C3.46943 10.0009 2.96065 9.78997 2.58558 9.41471C2.21051 9.03945 1.99987 8.53057 2 8Z" fill="black"/>
</g>
</svg>
