<svg width="16" height="16" viewBox="0 0 16 16" fill="none" xmlns="http://www.w3.org/2000/svg">
<mask id="mask0_388_683" style="mask-type:luminance" maskUnits="userSpaceOnUse" x="0" y="0" width="16" height="16">
<path d="M0 0H16V16H0V0Z" fill="white"/>
</mask>
<g mask="url(#mask0_388_683)">
<mask id="mask1_388_683" style="mask-type:luminance" maskUnits="userSpaceOnUse" x="0" y="2" width="16" height="12">
<path d="M0 2.5H16V13.5H0V2.5Z" fill="white"/>
</mask>
<g mask="url(#mask1_388_683)">
<path d="M10.915 6.004V6.783H8.09203C8.09203 6.491 8.18903 6.199 8.38403 6.004C8.65103 5.658 8.94403 5.333 9.26003 5.031C9.45503 4.739 9.74703 4.447 9.94103 4.252C10.0634 4.11898 10.1328 3.94572 10.136 3.765C10.136 3.571 10.039 3.473 9.94103 3.376C9.74703 3.181 9.35703 3.181 9.16303 3.376C9.06503 3.473 8.96803 3.571 8.96803 3.765H8.18903C8.18903 3.376 8.38403 3.084 8.67603 2.792C8.87003 2.597 9.26003 2.5 9.55203 2.5C9.94103 2.5 10.233 2.597 10.525 2.792C10.817 3.084 10.915 3.376 10.915 3.668C10.915 3.863 10.915 4.058 10.817 4.252C10.72 4.447 10.623 4.642 10.525 4.739C10.331 4.934 10.233 5.128 10.039 5.226C9.64903 5.518 9.55203 5.615 9.45503 5.712C9.35703 5.81 9.35703 5.907 9.26003 5.907L10.915 6.004ZM7.02103 6.686H6.14503V3.668C5.85303 3.96 5.56103 4.155 5.17103 4.252V3.571C5.36603 3.473 5.65803 3.376 5.85303 3.181C6.04703 2.987 6.24203 2.792 6.33903 2.5H7.02103V6.686ZM14.809 8.633H1.18003V12.527H15.782V13.5H0.207031V7.659H15.782V12.527H14.809V8.633Z" fill="black"/>
<path d="M1.17969 8.63281H14.8087V12.5268H1.17969V8.63281Z" fill="white"/>
</g>
</g>
</svg>
