<svg width="16" height="16" viewBox="0 0 16 16" fill="none" xmlns="http://www.w3.org/2000/svg">
<g clip-path="url(#clip0_388_121)">
<mask id="mask0_388_121" style="mask-type:luminance" maskUnits="userSpaceOnUse" x="0" y="0" width="16" height="16">
<path d="M0 0H16V16H0V0Z" fill="white"/>
</mask>
<g mask="url(#mask0_388_121)">
<path d="M7 3H14V4H7V3ZM7 13H14V14H7V13ZM7 8H14V9H7V8Z" fill="black"/>
<path d="M2 13.5C2 13.2348 2.10536 12.9804 2.29289 12.7929C2.48043 12.6054 2.73478 12.5 3 12.5C3.26522 12.5 3.51957 12.6054 3.70711 12.7929C3.89464 12.9804 4 13.2348 4 13.5C4 13.7652 3.89464 14.0196 3.70711 14.2071C3.51957 14.3946 3.26522 14.5 3 14.5C2.73478 14.5 2.48043 14.3946 2.29289 14.2071C2.10536 14.0196 2 13.7652 2 13.5ZM2 3.5C2 3.23478 2.10536 2.98043 2.29289 2.79289C2.48043 2.60536 2.73478 2.5 3 2.5C3.26522 2.5 3.51957 2.60536 3.70711 2.79289C3.89464 2.98043 4 3.23478 4 3.5C4 3.76522 3.89464 4.01957 3.70711 4.20711C3.51957 4.39464 3.26522 4.5 3 4.5C2.73478 4.5 2.48043 4.39464 2.29289 4.20711C2.10536 4.01957 2 3.76522 2 3.5ZM2 8.5C2 8.23478 2.10536 7.98043 2.29289 7.79289C2.48043 7.60536 2.73478 7.5 3 7.5C3.26522 7.5 3.51957 7.60536 3.70711 7.79289C3.89464 7.98043 4 8.23478 4 8.5C4 8.76522 3.89464 9.01957 3.70711 9.20711C3.51957 9.39464 3.26522 9.5 3 9.5C2.73478 9.5 2.48043 9.39464 2.29289 9.20711C2.10536 9.01957 2 8.76522 2 8.5Z" fill="black" stroke="black" stroke-miterlimit="10"/>
</g>
</g>
<defs>
<clipPath id="clip0_388_121">
<rect width="16" height="16" fill="white"/>
</clipPath>
</defs>
</svg>
