<svg width="16" height="16" viewBox="0 0 16 16" fill="none" xmlns="http://www.w3.org/2000/svg">
<mask id="mask0_388_425" style="mask-type:luminance" maskUnits="userSpaceOnUse" x="0" y="0" width="16" height="16">
<path d="M0 0H16V16H0V0Z" fill="white"/>
</mask>
<g mask="url(#mask0_388_425)">
<path d="M11.197 15.0003V13.7683H12.428V15.0003H11.197ZM12.316 13.3433H11.197V13.0523C11.1843 12.7436 11.2457 12.4364 11.376 12.1563C11.5608 11.8505 11.8041 11.584 12.092 11.3723C12.32 11.1993 12.533 11.0083 12.731 10.8013C12.8332 10.666 12.888 10.5008 12.887 10.3313C12.8943 10.2178 12.8771 10.104 12.8366 9.9977C12.796 9.89141 12.7331 9.79509 12.652 9.71528C12.4363 9.53534 12.1605 9.44355 11.88 9.45828C11.594 9.44422 11.3135 9.5401 11.096 9.72628C10.8629 9.94235 10.709 10.2304 10.659 10.5443L9.54 10.4093C9.569 9.89128 9.812 9.40928 10.211 9.07728C10.6647 8.69771 11.2441 8.50184 11.835 8.52828C12.4434 8.49652 13.0419 8.69221 13.514 9.07728C13.905 9.39128 14.135 9.86328 14.141 10.3653C14.1398 10.6401 14.0581 10.9085 13.906 11.1373C13.6247 11.5095 13.2933 11.841 12.921 12.1223C12.729 12.2623 12.565 12.4373 12.439 12.6383C12.3498 12.8623 12.308 13.1023 12.316 13.3433ZM1.679 13.3653V12.2463H6.158V13.3653H1.679ZM1.679 11.4283V10.3093H6.158V11.4283H1.679ZM15.261 5.75228V6.87128H10.962C11.011 6.43428 11.156 6.01428 11.387 5.64028C11.7811 5.08082 12.2437 4.57288 12.764 4.12828C13.1288 3.80637 13.466 3.45447 13.772 3.07628C13.931 2.85728 14.021 2.59628 14.029 2.32528C14.0314 2.20874 14.0098 2.09295 13.9656 1.9851C13.9214 1.87724 13.8555 1.77962 13.772 1.69828C13.6015 1.55348 13.3852 1.47399 13.1615 1.47399C12.9378 1.47399 12.7215 1.55348 12.551 1.69828C12.378 1.91828 12.287 2.19128 12.294 2.47128L11.107 2.35928C11.1143 2.08261 11.1787 1.81044 11.2963 1.55988C11.4138 1.30931 11.5819 1.08576 11.79 0.903281C12.2088 0.600183 12.7174 0.446631 13.234 0.467282C13.779 0.437282 14.314 0.622281 14.724 0.982282C15.078 1.31028 15.274 1.77528 15.261 2.25828C15.2621 2.54211 15.2088 2.82353 15.104 3.08728C14.981 3.38228 14.815 3.65728 14.612 3.90428C14.3635 4.19612 14.0938 4.4692 13.805 4.72128C13.417 5.07995 13.1707 5.31528 13.066 5.42728C12.9739 5.53149 12.8915 5.64396 12.82 5.76328H15.261V5.75228ZM7.558 5.97628V4.26228H5.878V3.14328H7.558V1.48628H8.677V3.14328H10.413V4.26228H8.677V5.97628H7.558ZM5.05 5.75228V6.87128H0.75C0.799 6.43428 0.944 6.01328 1.176 5.64028C1.57686 5.07942 2.0469 4.57141 2.575 4.12828C2.944 3.80728 3.285 3.45428 3.594 3.07628C3.753 2.85728 3.843 2.59628 3.852 2.32528C3.85832 2.21112 3.84177 2.09684 3.8033 1.98917C3.76483 1.88149 3.70523 1.78259 3.628 1.69828C3.54747 1.62207 3.45237 1.56294 3.34839 1.52445C3.24442 1.48595 3.13374 1.46889 3.023 1.47428C2.90956 1.4687 2.79621 1.4868 2.69016 1.52743C2.5841 1.56807 2.48767 1.63034 2.407 1.71028C2.23298 1.92926 2.14195 2.20269 2.15 2.48228L0.896 2.35928C0.903121 2.08258 0.967486 1.81035 1.08504 1.55976C1.20259 1.30917 1.37078 1.08565 1.579 0.903281C1.9963 0.595991 2.50507 0.438495 3.023 0.456281C3.56763 0.42627 4.10229 0.611193 4.512 0.971282C4.867 1.29928 5.062 1.76428 5.05 2.24728C5.05 2.53128 4.997 2.81228 4.893 3.07628C4.768 3.37028 4.603 3.64528 4.4 3.89328C4.15184 4.18511 3.88243 4.45818 3.594 4.71028L2.866 5.38228C2.77354 5.48623 2.69117 5.59874 2.62 5.71828H5.05V5.75228Z" fill="black"/>
</g>
</svg>
