<svg width="16" height="16" viewBox="0 0 16 16" fill="none" xmlns="http://www.w3.org/2000/svg">
<mask id="mask0_388_671" style="mask-type:luminance" maskUnits="userSpaceOnUse" x="0" y="0" width="16" height="16">
<path d="M0 0H16V16H0V0Z" fill="white"/>
</mask>
<g mask="url(#mask0_388_671)">
<path d="M6 13.5H10M6 8.5H10M6 3.5H10" stroke="black" stroke-miterlimit="10"/>
<path d="M12.5008 13.5C12.5008 13.2348 12.6061 12.9804 12.7937 12.7929C12.9812 12.6054 13.2356 12.5 13.5008 12.5C13.766 12.5 14.0204 12.6054 14.2079 12.7929C14.3954 12.9804 14.5008 13.2348 14.5008 13.5C14.5008 13.7652 14.3954 14.0196 14.2079 14.2071C14.0204 14.3946 13.766 14.5 13.5008 14.5C13.2356 14.5 12.9812 14.3946 12.7937 14.2071C12.6061 14.0196 12.5008 13.7652 12.5008 13.5ZM12.5008 8.5C12.5008 8.23478 12.6061 7.98043 12.7937 7.79289C12.9812 7.60536 13.2356 7.5 13.5008 7.5C13.766 7.5 14.0204 7.60536 14.2079 7.79289C14.3954 7.98043 14.5008 8.23478 14.5008 8.5C14.5008 8.76522 14.3954 9.01957 14.2079 9.20711C14.0204 9.39464 13.766 9.5 13.5008 9.5C13.2356 9.5 12.9812 9.39464 12.7937 9.20711C12.6061 9.01957 12.5008 8.76522 12.5008 8.5ZM12.5008 3.5C12.5008 3.23478 12.6061 2.98043 12.7937 2.79289C12.9812 2.60536 13.2356 2.5 13.5008 2.5C13.766 2.5 14.0204 2.60536 14.2079 2.79289C14.3954 2.98043 14.5008 3.23478 14.5008 3.5C14.5008 3.76522 14.3954 4.01957 14.2079 4.20711C14.0204 4.39464 13.766 4.5 13.5008 4.5C13.2356 4.5 12.9812 4.39464 12.7937 4.20711C12.6061 4.01957 12.5008 3.76522 12.5008 3.5ZM1.30078 3.5C1.30078 3.23478 1.40614 2.98043 1.59367 2.79289C1.78121 2.60536 2.03556 2.5 2.30078 2.5C2.566 2.5 2.82035 2.60536 3.00789 2.79289C3.19542 2.98043 3.30078 3.23478 3.30078 3.5C3.30078 3.76522 3.19542 4.01957 3.00789 4.20711C2.82035 4.39464 2.566 4.5 2.30078 4.5C2.03556 4.5 1.78121 4.39464 1.59367 4.20711C1.40614 4.01957 1.30078 3.76522 1.30078 3.5ZM1.30078 8.5C1.30078 8.23478 1.40614 7.98043 1.59367 7.79289C1.78121 7.60536 2.03556 7.5 2.30078 7.5C2.566 7.5 2.82035 7.60536 3.00789 7.79289C3.19542 7.98043 3.30078 8.23478 3.30078 8.5C3.30078 8.76522 3.19542 9.01957 3.00789 9.20711C2.82035 9.39464 2.566 9.5 2.30078 9.5C2.03556 9.5 1.78121 9.39464 1.59367 9.20711C1.40614 9.01957 1.30078 8.76522 1.30078 8.5ZM1.30078 13.5C1.30078 13.2348 1.40614 12.9804 1.59367 12.7929C1.78121 12.6054 2.03556 12.5 2.30078 12.5C2.566 12.5 2.82035 12.6054 3.00789 12.7929C3.19542 12.9804 3.30078 13.2348 3.30078 13.5C3.30078 13.7652 3.19542 14.0196 3.00789 14.2071C2.82035 14.3946 2.566 14.5 2.30078 14.5C2.03556 14.5 1.78121 14.3946 1.59367 14.2071C1.40614 14.0196 1.30078 13.7652 1.30078 13.5Z" fill="black" stroke="black" stroke-miterlimit="10"/>
</g>
</svg>
