<svg width="150" height="30" fill="none" xmlns="http://www.w3.org/2000/svg"><g clip-path="url(#clip0_2_787)"><path d="M0 23.538l7.788-.723c.316.939.768 1.616 1.34 2.016.573.4 1.356.6 2.32.6 1.054 0 1.868-.231 2.44-.693.452-.338.678-.769.678-1.276 0-.585-.301-1.031-.889-1.339-.421-.23-1.551-.508-3.374-.83-2.726-.493-4.61-.94-5.679-1.355-1.054-.415-1.943-1.107-2.68-2.092-.724-.985-1.085-2.108-1.085-3.37 0-1.384.391-2.568 1.175-3.568.783-1 1.867-1.739 3.238-2.231 1.37-.492 3.209-.739 5.528-.739 2.44 0 4.248.185 5.408.57 1.16.384 2.14.969 2.907 1.769.784.8 1.416 1.877 1.943 3.23l-7.486.8c-.196-.676-.512-1.184-.949-1.507-.618-.43-1.356-.646-2.214-.646-.874 0-1.522.169-1.913.477-.407.323-.603.723-.603 1.169 0 .508.256.908.768 1.17.513.26 1.627.507 3.344.707 2.606.308 4.55.723 5.815 1.261 1.265.539 2.244 1.308 2.922 2.308.678 1 1.01 2.092 1.01 3.292 0 1.216-.362 2.385-1.07 3.523-.708 1.139-1.838 2.047-3.374 2.724-1.537.677-3.63 1.015-6.267 1.015-3.735 0-6.386-.538-7.983-1.63C1.476 27.076.452 25.522 0 23.522v.015zm31.543-8.815c.753-.908 1.702-1.37 2.846-1.37 1.085 0 1.989.447 2.727 1.34.738.892 1.1 2.26 1.1 4.092 0 1.969-.362 3.4-1.1 4.292-.723.892-1.657 1.338-2.787 1.338s-2.048-.446-2.802-1.354c-.738-.907-1.114-2.292-1.114-4.184 0-1.862.376-3.246 1.114-4.154h.015zm-5.258 12.539c2.034 1.707 4.7 2.553 7.984 2.553 3.69 0 6.583-1.03 8.661-3.077 2.094-2.061 3.133-4.692 3.133-7.923 0-2.861-.843-5.277-2.53-7.23-2.094-2.431-5.197-3.647-9.294-3.647-3.585 0-6.432 1.031-8.541 3.108s-3.163 4.708-3.163 7.892c0 3.431 1.25 6.2 3.735 8.324h.015zM56.653 8.415h3.735v5.893h-3.735v15.03H48.79v-15.03h-2.968V8.415h2.968v-.938c0-.846.09-1.785.27-2.816.182-1.015.513-1.861 1.01-2.507.497-.646 1.19-1.17 2.094-1.57.874-.4 2.154-.6 3.841-.6h.166c1.37 0 3.359.17 5.935.493l-.89 4.83c-.948-.153-1.701-.23-2.274-.23-.708 0-1.22.123-1.536.369-.316.246-.527.63-.663 1.154-.06.292-.09.892-.09 1.83v-.015z" fill="#A7333E"/><path d="M70.752 14.308v7.43c0 .893.075 1.477.241 1.77.256.446.708.677 1.34.677.573 0 1.387-.17 2.426-.508l.572 5.508c-1.943.43-3.75.646-5.438.646-1.958 0-3.389-.262-4.323-.77-.918-.507-1.611-1.292-2.048-2.338-.437-1.046-.663-2.723-.663-5.061v-7.354h-2.877V8.415h2.877V4.57L70.722.446v13.846l.03.016z" fill="#A7333E"/><path d="M77.124.461h7.863v28.893h-7.863V.46zM88.3 29.354h7.864V8.415H88.3v20.939zm0-28.893v5.493h7.864V.46H88.3zm10.862 7.954h7.335v3.416c1.085-1.4 2.2-2.385 3.314-2.985 1.115-.6 2.486-.892 4.082-.892 2.17 0 3.872.661 5.092 1.984 1.22 1.323 1.838 3.354 1.838 6.123V29.37h-7.863V17.861c0-1.307-.241-2.246-.708-2.784-.482-.539-1.145-.816-2.004-.816-.949 0-1.717.37-2.32 1.108-.587.739-.888 2.062-.888 3.954v10.062h-7.878V8.415zm31.497 8.677c.12-1.261.421-2.2.903-2.846.738-1.015 1.733-1.538 2.983-1.538 1.069 0 1.943.338 2.606 1.015.663.677 1.069 1.8 1.22 3.37h-7.712zM146.309 20c0-2.77-.437-5.015-1.325-6.739-.889-1.723-2.169-3.046-3.872-3.953-1.702-.908-4.006-1.37-6.929-1.37-3.6 0-6.432 1.016-8.48 3.031-2.049 2.031-3.073 4.677-3.073 7.939 0 2.292.512 4.307 1.521 6 1.025 1.707 2.305 2.938 3.856 3.723 1.552.784 3.676 1.169 6.387 1.169 3.118 0 5.498-.462 7.17-1.37 1.672-.907 3.088-2.415 4.263-4.522l-7.712-.723c-.482.63-.934 1.077-1.356 1.323a4.26 4.26 0 01-2.169.584c-1.205 0-2.184-.446-2.937-1.354-.527-.63-.874-1.584-1.009-2.861h15.665v-.908V20zM36.076 3.277c8.963.985 12.548 1.77 20.908 4.061 6.974 1.923 18.061 1.093 18.061 1.093v5.892c-4.338.615-13.768.4-21.6-2.523C39.42 6.585 33.063 5.523 25.561 4.97c-10.168-.74-22.278.83-22.278.83l-.12-1.046s17.533-3.17 32.912-1.477zm110.52-2.231c1.867 0 3.389 1.477 3.509 3.339v.523c-.135 1.861-1.657 3.338-3.509 3.338-1.944 0-3.525-1.615-3.525-3.6 0-1.984 1.581-3.6 3.525-3.6zm0 6.37c1.491 0 2.711-1.247 2.711-2.77s-1.22-2.77-2.711-2.77c-1.492 0-2.712 1.247-2.712 2.77s1.22 2.77 2.712 2.77zm.241-4.585c.798 0 1.205.43 1.205 1a.836.836 0 01-.693.846v.015c.211.062.346.323.376.385l.588 1.43h-.949l-.467-1.169a.483.483 0 00-.467-.292h-.271v1.462h-.874V2.846h1.567l-.015-.015zm-.693 1.523h.391c.558 0 .618-.292.618-.446 0-.4-.527-.385-.618-.385h-.391v.83z" fill="#B4B4B3"/></g><defs><clipPath id="clip0_2_787"><path fill="#fff" d="M0 0h150v30H0z"/></clipPath></defs></svg>