<svg width="25" height="25" fill="none" xmlns="http://www.w3.org/2000/svg"><path fill-rule="evenodd" clip-rule="evenodd" d="M12.228 2.083c5.594 0 10.144 4.55 10.144 10.144 0 2.64-1.013 5.046-2.67 6.853l3.261 3.254a.78.78 0 01-.552 1.334.782.782 0 01-.552-.228l-3.3-3.291a10.094 10.094 0 01-6.33 2.223c-5.594 0-10.145-4.551-10.145-10.145 0-5.594 4.55-10.144 10.144-10.144zm0 1.563c-4.732 0-8.582 3.849-8.582 8.581 0 4.732 3.85 8.582 8.582 8.582 4.731 0 8.582-3.85 8.582-8.582 0-4.732-3.85-8.581-8.582-8.581z" fill="#828282"/></svg>