<svg width="15" height="15" fill="none" xmlns="http://www.w3.org/2000/svg"><path d="M10.813 8.018c.757 0 1.443.043 1.865.124.007 0 .393.079.522.13.186.08.343.225.443.406.072.145.107.298.107.458-.007.166-.114.478-.165.602-.313.812-1.343 2.364-1.972 2.96-.1.1-.221.21-.25.238a.896.896 0 01-1.08.014 2.438 2.438 0 01-.243-.218l-.028-.028c-.65-.609-1.63-2.125-1.944-2.894-.007 0-.163-.384-.195-.615l-.005-.06v-.028c0-.334.185-.646.486-.806.165-.087.643-.167.65-.174.429-.066 1.087-.109 1.809-.109zm-6.622.039c.3 0 .546.228.58.523l.004.069.16 2.862a.75.75 0 01-.744.755.749.749 0 01-.74-.678l-.005-.077.161-2.862c0-.327.261-.592.584-.592zm.004-6.182c.185 0 .37.058.521.174.065.047.155.131.213.188l.059.059c.65.61 1.63 2.125 1.944 2.894.006 0 .163.385.195.616l.005.06v.028a.915.915 0 01-.486.805c-.165.087-.643.167-.65.174a13.09 13.09 0 01-1.808.109c-.758 0-1.444-.044-1.866-.124-.008 0-.393-.08-.522-.13a.932.932 0 01-.443-.406 1.017 1.017 0 01-.107-.457c.007-.167.114-.479.164-.602.314-.813 1.344-2.365 1.973-2.96.1-.101.221-.21.25-.24a.895.895 0 01.558-.188zm6.614.86c.386 0 .702.296.74.677l.004.077-.16 2.862a.588.588 0 01-.584.593.587.587 0 01-.58-.524l-.003-.069-.161-2.862a.75.75 0 01.744-.755z" fill="#828282"/></svg>