<svg width="15" height="15" viewBox="0 0 15 15" fill="none" xmlns="http://www.w3.org/2000/svg">
<path d="M10.8813 7.58842C10.8024 7.44217 10.6524 7.351 10.4892 7.351H7.94831V2.33393C7.94831 2.0806 7.74747 1.875 7.50002 1.875C7.25256 1.875 7.05173 2.0806 7.05173 2.33393V7.351H4.51082C4.34705 7.351 4.19702 7.44217 4.11872 7.58842C4.03922 7.73467 4.0446 7.91335 4.13127 8.0547L7.12046 12.9108C7.20295 13.0442 7.3458 13.125 7.50002 13.125C7.65423 13.125 7.79708 13.0442 7.87957 12.9108L10.8688 8.0547C10.9142 7.98004 10.9375 7.89499 10.9375 7.80993C10.9375 7.73406 10.9184 7.65757 10.8813 7.58842Z" fill="black"/>
</svg>
