<svg width="15" height="15" viewBox="0 0 15 15" fill="none" xmlns="http://www.w3.org/2000/svg">
<path d="M4.11869 7.41158C4.19758 7.55783 4.34761 7.649 4.51079 7.649H7.05169V12.6661C7.05169 12.9194 7.25253 13.125 7.49998 13.125C7.74744 13.125 7.94827 12.9194 7.94827 12.6661V7.649H10.4892C10.653 7.649 10.803 7.55783 10.8813 7.41158C10.9608 7.26533 10.9554 7.08665 10.8687 6.9453L7.87954 2.08917C7.79705 1.95577 7.6542 1.875 7.49998 1.875C7.34577 1.875 7.20292 1.95577 7.12043 2.08917L4.13124 6.9453C4.08581 7.01996 4.0625 7.10501 4.0625 7.19007C4.0625 7.26594 4.08163 7.34243 4.11869 7.41158Z" fill="black"/>
</svg>
