<svg width="25" height="25" viewBox="0 0 25 25" fill="none" xmlns="http://www.w3.org/2000/svg">
<path d="M16.3017 2.08334C16.744 2.0823 17.0936 2.42588 17.0947 2.88398L17.0957 3.66484C19.9651 3.88973 21.8606 5.845 21.8637 8.8435L21.875 17.6203C21.8791 20.8895 19.8253 22.901 16.5331 22.9062L8.49155 22.9167C5.22 22.9208 3.14044 20.8614 3.13633 17.5829L3.12501 8.90909C3.1209 5.89081 4.94951 3.94074 7.81893 3.67733L7.81791 2.89647C7.81688 2.43837 8.15627 2.09375 8.6088 2.09375C9.06132 2.09271 9.40072 2.43629 9.40174 2.89439L9.40277 3.62319L15.5119 3.61487L15.5108 2.88606C15.5098 2.42796 15.8492 2.08438 16.3017 2.08334ZM16.7213 16.8666H16.7111C16.238 16.878 15.8585 17.2747 15.8687 17.7536C15.8698 18.2325 16.2513 18.6271 16.7244 18.6375C17.2068 18.6365 17.5976 18.2398 17.5966 17.7505C17.5966 17.2612 17.2047 16.8666 16.7213 16.8666ZM8.24678 16.8676C7.77368 16.8884 7.40343 17.2851 7.40446 17.764C7.42606 18.243 7.81688 18.6178 8.28997 18.5959C8.75381 18.5751 9.12303 18.1784 9.10143 17.6995C9.09115 17.231 8.70959 16.8666 8.24678 16.8676ZM12.4841 16.8624C12.011 16.8843 11.6417 17.2799 11.6417 17.7588C11.6633 18.2377 12.0542 18.6115 12.5273 18.5907C12.9901 18.5688 13.3603 18.1732 13.3387 17.6932C13.3284 17.2258 12.9469 16.8614 12.4841 16.8624ZM8.24163 13.1195C7.76854 13.1403 7.39932 13.537 7.40035 14.0159C7.42092 14.4948 7.81276 14.8696 8.28586 14.8478C8.74867 14.827 9.11789 14.4303 9.09629 13.9514C9.08601 13.4828 8.70547 13.1184 8.24163 13.1195ZM12.4799 13.083C12.0069 13.1039 11.6366 13.5005 11.6376 13.9795C11.6582 14.4584 12.05 14.8322 12.5231 14.8113C12.986 14.7895 13.3552 14.3938 13.3346 13.9149C13.3233 13.4464 12.9428 13.082 12.4799 13.083ZM16.7172 13.0882C16.2441 13.0987 15.8739 13.4839 15.8749 13.9628V13.9743C15.8852 14.4532 16.276 14.8165 16.7501 14.8061C17.2129 14.7947 17.5822 14.398 17.5719 13.9191C17.5503 13.461 17.179 13.0872 16.7172 13.0882ZM15.5139 5.21823L9.40483 5.22656L9.40586 6.06884C9.40586 6.51758 9.06749 6.87157 8.61497 6.87157C8.16244 6.87261 7.82202 6.51966 7.82202 6.07093L7.82099 5.26924C5.81548 5.47019 4.70577 6.64876 4.70885 8.90701L4.70988 9.2308L20.2809 9.20998V8.84558C20.2366 6.60712 19.1136 5.4327 17.0978 5.25779L17.0988 6.05947C17.0988 6.50717 16.7501 6.8622 16.3079 6.8622C15.8554 6.86324 15.515 6.50925 15.515 6.06156L15.5139 5.21823Z" fill="black"/>
</svg>
