<svg width="21" height="21" viewBox="0 0 21 21" fill="none" xmlns="http://www.w3.org/2000/svg">
<path d="M15.0205 0.082489C18.5518 0.082489 20.9163 2.56166 20.9163 6.24916V14.7606C20.9163 18.4377 18.5518 20.9158 15.0205 20.9158H5.98926C2.45801 20.9158 0.0830078 18.4377 0.0830078 14.7606V6.24916C0.0830078 2.56166 2.45801 0.082489 5.98926 0.082489H15.0205ZM13.6351 7.34395C13.2809 6.98874 12.708 6.98874 12.3434 7.34395L10.4997 9.19707L8.64551 7.34395C8.28093 6.98874 7.70801 6.98874 7.35384 7.34395C6.99967 7.69811 6.99967 8.28145 7.35384 8.63457L9.20801 10.4898L7.35384 12.3335C6.99967 12.6981 6.99967 13.271 7.35384 13.6242C7.53093 13.8012 7.77051 13.896 7.99967 13.896C8.23926 13.896 8.46843 13.8012 8.64551 13.6242L10.4997 11.7814L12.3538 13.6242C12.5309 13.8127 12.7601 13.896 12.9893 13.896C13.2288 13.896 13.458 13.8012 13.6351 13.6242C13.9893 13.271 13.9893 12.6981 13.6351 12.3439L11.7809 10.4898L13.6351 8.63457C13.9893 8.28145 13.9893 7.69811 13.6351 7.34395Z" fill="#A7333E"/>
</svg>
