<svg width="16" height="30" viewBox="0 0 16 30" fill="none" xmlns="http://www.w3.org/2000/svg">
<path d="M11.5267 20.2067C11.465 20.1449 11.3918 20.0958 11.3111 20.0624C11.2305 20.0289 11.144 20.0117 11.0567 20.0117C10.9694 20.0117 10.8829 20.0289 10.8023 20.0624C10.7216 20.0958 10.6484 20.1449 10.5867 20.2067L8.00003 22.7933L5.41336 20.2067C5.28871 20.082 5.11964 20.012 4.94336 20.012C4.76708 20.012 4.59801 20.082 4.47336 20.2067C4.34871 20.3313 4.27868 20.5004 4.27868 20.6767C4.27868 20.853 4.34871 21.022 4.47336 21.1467L7.53336 24.2067C7.59504 24.2685 7.66829 24.3175 7.74894 24.351C7.82959 24.3844 7.91605 24.4016 8.00336 24.4016C8.09067 24.4016 8.17713 24.3844 8.25778 24.351C8.33842 24.3175 8.41168 24.2685 8.47336 24.2067L11.5334 21.1467C11.7867 20.8933 11.7867 20.4667 11.5267 20.2067Z" fill="#333333"/>
<path d="M4.47331 9.79332C4.53498 9.85512 4.60824 9.90415 4.68889 9.93761C4.76954 9.97106 4.85599 9.98828 4.94331 9.98828C5.03062 9.98828 5.11707 9.97106 5.19772 9.93761C5.27837 9.90415 5.35163 9.85512 5.41331 9.79332L7.99997 7.20665L10.5866 9.79332C10.7113 9.91797 10.8804 9.988 11.0566 9.988C11.2329 9.988 11.402 9.91797 11.5266 9.79332C11.6513 9.66867 11.7213 9.4996 11.7213 9.32332C11.7213 9.14703 11.6513 8.97797 11.5266 8.85332L8.46664 5.79332C8.40496 5.73152 8.33171 5.68248 8.25106 5.64903C8.17041 5.61558 8.08395 5.59836 7.99664 5.59836C7.90933 5.59836 7.82287 5.61558 7.74222 5.64903C7.66158 5.68248 7.58832 5.73152 7.52664 5.79332L4.46664 8.85332C4.21331 9.10665 4.21331 9.53332 4.47331 9.79332Z" fill="#333333"/>
</svg>
