<svg width="15" height="15" viewBox="0 0 15 15" fill="none" xmlns="http://www.w3.org/2000/svg">
<path d="M7.94827 1.25006C8.42092 1.25006 8.84887 1.51256 9.08519 1.90006C9.20016 2.08756 9.27681 2.31881 9.25765 2.56256C9.24487 2.75006 9.30236 2.93756 9.40456 3.11256C9.7303 3.64381 10.4521 3.84381 11.0141 3.54381C11.6465 3.18131 12.4449 3.40006 12.809 4.01881L13.2369 4.75631C13.6074 5.37506 13.403 6.16881 12.7642 6.52506C12.2213 6.84381 12.0297 7.55006 12.3555 8.08756C12.4577 8.25631 12.5726 8.40006 12.7515 8.48756C12.975 8.60631 13.1475 8.79381 13.2688 8.98131C13.5052 9.36881 13.486 9.84381 13.2561 10.2626L12.809 11.0126C12.5726 11.4126 12.1319 11.6626 11.6784 11.6626C11.4549 11.6626 11.2058 11.6001 11.0014 11.4751C10.8353 11.3688 10.6437 11.3313 10.4393 11.3313C9.80695 11.3313 9.27681 11.8501 9.25765 12.4688C9.25765 13.1876 8.67002 13.7501 7.93549 13.7501H7.06683C6.32591 13.7501 5.73828 13.1876 5.73828 12.4688C5.72551 11.8501 5.19537 11.3313 4.56303 11.3313C4.35225 11.3313 4.16064 11.3688 4.00096 11.4751C3.79656 11.6001 3.54107 11.6626 3.32391 11.6626C2.86403 11.6626 2.42331 11.4126 2.18698 11.0126L1.74626 10.2626C1.50993 9.85631 1.49716 9.36881 1.73349 8.98131C1.83568 8.79381 2.0273 8.60631 2.24447 8.48756C2.42331 8.40006 2.53828 8.25631 2.64686 8.08756C2.96622 7.55006 2.77461 6.84381 2.23169 6.52506C1.59936 6.16881 1.39496 5.37506 1.75904 4.75631L2.18698 4.01881C2.55744 3.40006 3.34946 3.18131 3.98818 3.54381C4.54387 3.84381 5.26563 3.64381 5.59138 3.11256C5.69357 2.93756 5.75106 2.75006 5.73828 2.56256C5.72551 2.31881 5.79577 2.08756 5.91713 1.90006C6.15345 1.51256 6.5814 1.26256 7.04767 1.25006H7.94827ZM7.50755 5.73756C6.50475 5.73756 5.69357 6.52506 5.69357 7.50631C5.69357 8.48756 6.50475 9.26881 7.50755 9.26881C8.51034 9.26881 9.30236 8.48756 9.30236 7.50631C9.30236 6.52506 8.51034 5.73756 7.50755 5.73756Z" fill="#0E0D0D"/>
</svg>
