<svg width="15" height="15" viewBox="0 0 15 15" fill="none" xmlns="http://www.w3.org/2000/svg">
<path d="M11.9815 2.32133C12.1644 2.14289 12.451 2.14289 12.6279 2.32133C12.8109 2.49977 12.8109 2.79513 12.6279 2.97357L11.518 4.09345C12.4023 4.90567 13.1524 6.00093 13.7134 7.31771C13.7622 7.43462 13.7622 7.56999 13.7134 7.68075C12.4084 10.745 10.0849 12.5787 7.49918 12.5787H7.49308C6.31609 12.5787 5.1879 12.191 4.19386 11.4834L3.01078 12.6771C2.91931 12.7694 2.80344 12.8125 2.68757 12.8125C2.5717 12.8125 2.44973 12.7694 2.36435 12.6771C2.21189 12.5233 2.1875 12.2772 2.30947 12.0987L2.32776 12.0741L11.3472 2.97357C11.3594 2.96126 11.3716 2.94896 11.3777 2.93665C11.3899 2.92434 11.4021 2.91204 11.4082 2.89973L11.9815 2.32133ZM7.50082 2.42834C8.37289 2.42834 9.22056 2.63754 10.0012 3.03135L7.9643 5.08651C7.81794 5.0619 7.65938 5.04344 7.50082 5.04344C6.15308 5.04344 5.06148 6.14485 5.06148 7.50471C5.06148 7.66469 5.07977 7.82467 5.10417 7.97235L2.84777 10.249C2.23793 9.53526 1.70738 8.67381 1.28659 7.68315C1.2378 7.57239 1.2378 7.43702 1.28659 7.32011C2.59164 4.25583 4.91512 2.42834 7.49473 2.42834H7.50082ZM9.51164 6.11784L8.84692 6.78854C8.95669 6.99775 9.01767 7.24387 9.01767 7.50231C9.01767 8.34529 8.33465 9.03445 7.49918 9.03445C7.24305 9.03445 6.99911 8.97292 6.79177 8.86216L6.12704 9.53286C6.51734 9.79744 6.99301 9.95743 7.49918 9.95743C8.84082 9.95743 9.93242 8.85601 9.93242 7.50231C9.93242 6.99159 9.77387 6.51165 9.51164 6.11784Z" fill="black"/>
</svg>
