<svg width="16" height="16" viewBox="0 0 16 16" fill="none" xmlns="http://www.w3.org/2000/svg">
<path d="M3.99935 14.667C3.63268 14.667 3.3189 14.5365 3.05802 14.2757C2.79668 14.0143 2.66602 13.7003 2.66602 13.3337V6.66699C2.66602 6.30033 2.79668 5.98633 3.05802 5.72499C3.3189 5.4641 3.63268 5.33366 3.99935 5.33366H4.66602V4.00033C4.66602 3.0781 4.99113 2.29188 5.64135 1.64166C6.29113 0.991881 7.07713 0.666992 7.99935 0.666992C8.92157 0.666992 9.70779 0.991881 10.358 1.64166C11.0078 2.29188 11.3327 3.0781 11.3327 4.00033V5.33366H11.9993C12.366 5.33366 12.68 5.4641 12.9413 5.72499C13.2022 5.98633 13.3327 6.30033 13.3327 6.66699V13.3337C13.3327 13.7003 13.2022 14.0143 12.9413 14.2757C12.68 14.5365 12.366 14.667 11.9993 14.667H3.99935ZM5.99935 5.33366H9.99935V4.00033C9.99935 3.44477 9.8049 2.97255 9.41602 2.58366C9.02713 2.19477 8.5549 2.00033 7.99935 2.00033C7.44379 2.00033 6.97157 2.19477 6.58268 2.58366C6.19379 2.97255 5.99935 3.44477 5.99935 4.00033V5.33366Z" fill="black"/>
</svg>
