<svg width="150" height="30" viewBox="0 0 150 30" fill="none" xmlns="http://www.w3.org/2000/svg">
<g clip-path="url(#clip0_2_787)">
<path d="M0 23.5384L7.78771 22.8153C8.10404 23.7538 8.55593 24.4307 9.12834 24.8307C9.70074 25.2307 10.484 25.4307 11.4481 25.4307C12.5025 25.4307 13.3159 25.2 13.8883 24.7384C14.3402 24.4 14.5662 23.9692 14.5662 23.4615C14.5662 22.8769 14.2649 22.4307 13.6774 22.123C13.2557 21.8923 12.1259 21.6153 10.3033 21.2923C7.57682 20.8 5.69391 20.3538 4.62442 19.9384C3.56999 19.523 2.68126 18.8307 1.94316 17.8461C1.22012 16.8615 0.858606 15.7384 0.858606 14.4769C0.858606 13.0923 1.25025 11.9076 2.03354 10.9076C2.81683 9.90765 3.90139 9.16918 5.27214 8.67688C6.6429 8.18457 8.48062 7.93842 10.8004 7.93842C13.2406 7.93842 15.0482 8.12303 16.2081 8.50765C17.3679 8.89226 18.3471 9.47688 19.1153 10.2769C19.8986 11.0769 20.5312 12.1538 21.0584 13.5076L13.572 14.3076C13.3762 13.6307 13.0599 13.123 12.623 12.8C12.0054 12.3692 11.2673 12.1538 10.4087 12.1538C9.53505 12.1538 8.88733 12.323 8.49568 12.6307C8.08897 12.9538 7.89315 13.3538 7.89315 13.8C7.89315 14.3076 8.14923 14.7076 8.66138 14.9692C9.17353 15.2307 10.2882 15.4769 12.0054 15.6769C14.6114 15.9846 16.5545 16.4 17.8198 16.9384C19.0852 17.4769 20.0643 18.2461 20.7421 19.2461C21.42 20.2461 21.7514 21.3384 21.7514 22.5384C21.7514 23.7538 21.3898 24.923 20.6819 26.0615C19.9739 27.2 18.8441 28.1076 17.3077 28.7846C15.7712 29.4615 13.6774 29.8 11.0414 29.8C7.30568 29.8 4.65455 29.2615 3.05784 28.1692C1.4762 27.0769 0.451898 25.523 0 23.523V23.5384Z" fill="#A7333E"/>
<path d="M31.5425 14.723C32.2957 13.8153 33.2446 13.3538 34.3894 13.3538C35.474 13.3538 36.3778 13.8 37.1159 14.6923C37.854 15.5846 38.2155 16.9538 38.2155 18.7846C38.2155 20.7538 37.854 22.1846 37.1159 23.0769C36.3929 23.9692 35.4589 24.4153 34.3292 24.4153C33.1995 24.4153 32.2806 23.9692 31.5274 23.0615C30.7893 22.1538 30.4127 20.7692 30.4127 18.8769C30.4127 17.0153 30.7893 15.6307 31.5274 14.723H31.5425ZM26.2854 27.2615C28.319 28.9692 30.9852 29.8153 34.2689 29.8153C37.9594 29.8153 40.8516 28.7846 42.9303 26.7384C45.0241 24.6769 46.0635 22.0461 46.0635 18.8153C46.0635 15.9538 45.2199 13.5384 43.5328 11.5846C41.4391 9.1538 38.336 7.93842 34.2388 7.93842C30.6538 7.93842 27.8068 8.96918 25.698 11.0461C23.5891 13.123 22.5347 15.7538 22.5347 18.9384C22.5347 22.3692 23.7849 25.1384 26.2704 27.2615H26.2854Z" fill="#A7333E"/>
<path d="M56.6528 8.41526H60.3884V14.3076H56.6528V29.3383H48.7897V14.3076H45.8223V8.41526H48.7897V7.4768C48.7897 6.63065 48.8801 5.69219 49.0609 4.66142C49.2416 3.64603 49.573 2.79988 50.0701 2.15373C50.5672 1.50757 51.2601 0.984497 52.1639 0.584497C53.0376 0.184497 54.318 -0.0155029 56.005 -0.0155029H56.1707C57.5415 -0.0155029 59.5298 0.153728 62.1057 0.476805L61.2169 5.30757C60.2679 5.15373 59.5148 5.0768 58.9424 5.0768C58.2344 5.0768 57.7222 5.19988 57.4059 5.44603C57.0896 5.69219 56.8787 6.0768 56.7431 6.59988C56.6829 6.89219 56.6528 7.49219 56.6528 8.43065V8.41526Z" fill="#A7333E"/>
<path d="M70.7521 14.3076V21.7384C70.7521 22.6307 70.8274 23.2153 70.9931 23.5076C71.2492 23.9538 71.7011 24.1846 72.3338 24.1846C72.9062 24.1846 73.7196 24.0153 74.7589 23.6769L75.3313 29.1846C73.3882 29.6153 71.5806 29.8307 69.8935 29.8307C67.9353 29.8307 66.5043 29.5692 65.5704 29.0615C64.6515 28.5538 63.9586 27.7692 63.5218 26.723C63.085 25.6769 62.859 23.9999 62.859 21.6615V14.3076H59.9819V8.41534H62.859V4.56918L70.722 0.446106V14.2923L70.7521 14.3076Z" fill="#A7333E"/>
<path d="M77.124 0.461487H84.987V29.3538H77.124V0.461487Z" fill="#B4B4B3"/>
<path d="M88.3008 29.3538H96.1637V8.41534H88.3008V29.3538Z" fill="#B4B4B3"/>
<path d="M88.3008 0.461487V5.9538H96.1637V0.461487H88.3008Z" fill="#B4B4B3"/>
<path d="M99.1616 8.41533H106.497V11.8307C107.582 10.4307 108.697 9.4461 109.811 8.8461C110.926 8.2461 112.297 7.9538 113.893 7.9538C116.063 7.9538 117.765 8.61533 118.985 9.93841C120.205 11.2615 120.823 13.2923 120.823 16.0615V29.3692H112.96V17.8615C112.96 16.5538 112.719 15.6153 112.252 15.0769C111.77 14.5384 111.107 14.2615 110.248 14.2615C109.299 14.2615 108.531 14.6307 107.928 15.3692C107.341 16.1076 107.04 17.4307 107.04 19.323V29.3846H99.1616V8.46149V8.41533Z" fill="#B4B4B3"/>
<path d="M130.659 17.0923C130.779 15.8307 131.08 14.8923 131.562 14.2461C132.3 13.2307 133.295 12.7076 134.545 12.7076C135.614 12.7076 136.488 13.0461 137.151 13.723C137.814 14.4 138.22 15.523 138.371 17.0923H130.674H130.659ZM146.309 20C146.309 17.2307 145.872 14.9846 144.984 13.2615C144.095 11.5384 142.815 10.2153 141.112 9.30765C139.41 8.39995 137.106 7.93842 134.183 7.93842C130.583 7.93842 127.751 8.9538 125.703 10.9692C123.654 13 122.63 15.6461 122.63 18.9076C122.63 21.2 123.142 23.2153 124.151 24.9076C125.176 26.6153 126.456 27.8461 128.007 28.6307C129.559 29.4153 131.683 29.8 134.394 29.8C137.512 29.8 139.892 29.3384 141.564 28.4307C143.236 27.523 144.652 26.0153 145.827 23.9076L138.115 23.1846C137.633 23.8153 137.181 24.2615 136.759 24.5076C136.066 24.9076 135.343 25.0923 134.59 25.0923C133.385 25.0923 132.406 24.6461 131.653 23.7384C131.126 23.1076 130.779 22.1538 130.644 20.8769H146.309V19.9692V20Z" fill="#B4B4B3"/>
<path d="M36.0763 3.27689C45.0389 4.26151 48.624 5.04612 56.9841 7.33843C63.9584 9.2615 75.045 8.43074 75.045 8.43074C75.045 8.43074 75.045 12.0769 75.045 14.323C70.7067 14.9384 61.2771 14.723 53.4442 11.8C39.4203 6.58458 33.0637 5.52304 25.5622 4.9692C15.3945 4.23074 3.28359 5.79997 3.28359 5.79997L3.16309 4.75381C3.16309 4.75381 20.6967 1.58458 36.0763 3.27689Z" fill="#B4B4B3"/>
<path d="M146.596 1.04614C148.463 1.04614 149.985 2.52307 150.105 4.3846V4.90768C149.97 6.76922 148.448 8.24614 146.596 8.24614C144.652 8.24614 143.071 6.63076 143.071 4.64614C143.071 2.66153 144.652 1.04614 146.596 1.04614ZM146.596 7.41537C148.087 7.41537 149.307 6.16922 149.307 4.64614C149.307 3.12307 148.087 1.87691 146.596 1.87691C145.104 1.87691 143.884 3.12307 143.884 4.64614C143.884 6.16922 145.104 7.41537 146.596 7.41537ZM146.837 2.83076C147.635 2.83076 148.042 3.26153 148.042 3.83076C148.042 4.33845 147.68 4.61537 147.349 4.67691V4.6923C147.56 4.75384 147.695 5.01537 147.725 5.07691L148.313 6.50768H147.364L146.897 5.33845C146.882 5.2923 146.761 5.04614 146.43 5.04614H146.159V6.50768H145.285V2.84614H146.852L146.837 2.83076ZM146.144 4.35384H146.535C147.093 4.35384 147.153 4.06153 147.153 3.90768C147.153 3.50768 146.626 3.52307 146.535 3.52307H146.144V4.35384Z" fill="#B4B4B3"/>
</g>
<defs>
<clipPath id="clip0_2_787">
<rect width="150" height="30" fill="white"/>
</clipPath>
</defs>
</svg>
