<svg width="20" height="20" viewBox="0 0 20 20" fill="none" xmlns="http://www.w3.org/2000/svg">
<path d="M13.8871 1.6753C15.0859 1.60038 16.268 2.01661 17.1587 2.83244C17.9746 3.72318 18.3908 4.90529 18.3242 6.11238V13.8877C18.3991 15.0947 17.9746 16.2769 17.1671 17.1676C16.2763 17.9834 15.0859 18.3997 13.8871 18.3247H6.11174C4.90465 18.3997 3.72253 17.9834 2.83177 17.1676C2.01594 16.2769 1.59971 15.0947 1.67463 13.8877V6.11238C1.59971 4.90529 2.01594 3.72318 2.83177 2.83244C3.72253 2.01661 4.90465 1.60038 6.11174 1.6753H13.8871ZM13.6706 5.4797C13.1545 4.96356 12.322 4.96356 11.8059 5.4797L11.2481 6.04578C11.1649 6.12902 11.1649 6.27055 11.2481 6.35379C11.2481 6.35379 11.2645 6.37003 11.2936 6.39894L11.4983 6.60259C11.6168 6.72044 11.7646 6.86761 11.9131 7.01561L12.4165 7.51877C12.5215 7.62429 12.5912 7.695 12.5968 7.7024C12.6883 7.80229 12.7466 7.93549 12.7466 8.08533C12.7466 8.38502 12.5052 8.63477 12.1972 8.63477C12.0556 8.63477 11.9224 8.57649 11.8309 8.48492L10.4406 7.10302C10.374 7.03642 10.2575 7.03642 10.1909 7.10302L6.21996 11.0739C5.94524 11.3486 5.78707 11.7149 5.77875 12.1062L5.7288 14.0791C5.7288 14.1874 5.7621 14.2873 5.83702 14.3622C5.91195 14.4371 6.01184 14.4787 6.12006 14.4787H8.07639C8.47598 14.4787 8.85892 14.3205 9.15029 14.0375L14.7529 8.41832C15.2607 7.90219 15.2607 7.06972 14.7529 6.56191L13.6706 5.4797Z" fill="#F2C94C"/>
</svg>
