<svg width="21" height="21" viewBox="0 0 21 21" fill="none" xmlns="http://www.w3.org/2000/svg">
<path d="M15.3538 0.083313C18.8955 0.083313 20.9163 2.08331 20.9163 5.6354V15.3646C20.9163 18.8958 18.9059 20.9166 15.3643 20.9166H5.63509C2.08301 20.9166 0.0830078 18.8958 0.0830078 15.3646V5.6354C0.0830078 2.08331 2.08301 0.083313 5.63509 0.083313H15.3538ZM10.4893 5.8229C10.0101 5.8229 9.62467 6.20831 9.62467 6.68748V9.62498H6.67676C6.44759 9.62498 6.22884 9.71873 6.06218 9.87498C5.90593 10.0416 5.81217 10.2594 5.81217 10.4896C5.81217 10.9687 6.19759 11.3541 6.67676 11.3646H9.62467V14.3125C9.62467 14.7916 10.0101 15.1771 10.4893 15.1771C10.9684 15.1771 11.3538 14.7916 11.3538 14.3125V11.3646H14.3122C14.7913 11.3541 15.1768 10.9687 15.1768 10.4896C15.1768 10.0104 14.7913 9.62498 14.3122 9.62498H11.3538V6.68748C11.3538 6.20831 10.9684 5.8229 10.4893 5.8229Z" fill="black"/>
</svg>
