<svg width="15" height="15" viewBox="0 0 15 15" fill="none" xmlns="http://www.w3.org/2000/svg">
<path d="M5.9375 9.38449C8.47925 9.38449 10.625 9.80272 10.625 11.418C10.625 13.0332 8.46548 13.4375 5.9375 13.4375C3.39575 13.4375 1.25 13.0186 1.25 11.404C1.25 9.78878 3.40889 9.38449 5.9375 9.38449ZM11.8744 4.6875C12.1845 4.6875 12.4362 4.9434 12.4362 5.25726V5.99241H13.1881C13.4976 5.99241 13.75 6.24832 13.75 6.56217C13.75 6.87603 13.4976 7.13193 13.1881 7.13193H12.4362V7.86774C12.4362 8.1816 12.1845 8.4375 11.8744 8.4375C11.5649 8.4375 11.3125 8.1816 11.3125 7.86774V7.13193H10.5619C10.2517 7.13193 10 6.87603 10 6.56217C10 6.24832 10.2517 5.99241 10.5619 5.99241H11.3125V5.25726C11.3125 4.9434 11.5649 4.6875 11.8744 4.6875ZM5.9375 1.5625C7.65911 1.5625 9.03914 2.96039 9.03914 4.70428C9.03914 6.44816 7.65911 7.84605 5.9375 7.84605C4.21589 7.84605 2.83586 6.44816 2.83586 4.70428C2.83586 2.96039 4.21589 1.5625 5.9375 1.5625Z" fill="black"/>
</svg>
