<svg width="24" height="24" viewBox="0 0 24 24" fill="none" xmlns="http://www.w3.org/2000/svg">
<g clip-path="url(#clip0_327_1322)">
<path d="M6 14.8066H1C0.419355 14.8066 0 15.226 0 15.8066V23.0324C0 23.5808 0.419355 24.0324 1 24.0324H6C6.58065 24.0324 7 23.6131 7 23.0324V15.7744C7 15.226 6.54839 14.8066 6 14.8066ZM5.32258 22.3228H1.70968V16.4841H5.32258V22.3228Z" fill="black"/>
<path d="M14.322 0H9.64453C9.06389 0 8.64453 0.419355 8.64453 1V23.0323C8.64453 23.5806 9.06389 24.0323 9.64453 24.0323H14.322C14.9026 24.0323 15.322 23.6129 15.322 23.0323V1C15.322 0.419355 14.8703 0 14.322 0ZM13.6445 22.3226H10.3542V1.70968H13.6445V22.3226Z" fill="black"/>
<path d="M23 6.25781H18C17.4194 6.25781 17 6.67717 17 7.25781V23.032C17 23.5804 17.4194 24.032 18 24.032H23C23.5806 24.032 24 23.6126 24 23.032V7.25781C24 6.67717 23.5484 6.25781 23 6.25781ZM22.3226 22.3223H18.7097V7.93523H22.3226V22.3223Z" fill="black"/>
</g>
<defs>
<clipPath id="clip0_327_1322">
<rect width="24" height="24" fill="white"/>
</clipPath>
</defs>
</svg>
