<svg width="24" height="24" viewBox="0 0 24 24" fill="none" xmlns="http://www.w3.org/2000/svg">
<g clip-path="url(#clip0_327_1264)">
<path d="M21.8371 21.9032V2.12903C21.8371 1.87097 21.7081 1.64516 21.4178 1.48387L18.6113 0.0645161C18.5145 0.0322581 18.3855 0 18.2887 0H2.83712C2.41776 0.0322581 2.12744 0.322581 2.12744 0.709677V23.2903C2.09518 23.6129 2.3855 23.9677 2.83712 24H18.2887C18.3855 24 18.5145 23.9677 18.6113 23.9355L21.4178 22.5161C21.7081 22.3871 21.8371 22.1613 21.8371 21.9032ZM20.1597 21.2903L18.7403 22V18.6129L20.1597 17.9032V21.2903ZM20.1597 16L18.7403 16.7097V13.3226L20.1597 12.6129V16ZM20.1597 10.8065L18.7403 11.5161V8.12903L20.1597 7.41935V10.8065ZM19.8049 5.70968L17.4823 6.67742C17.2565 6.83871 17.0629 7.06452 17.0629 7.32258V22.2903H3.83712V1.67742H17.8694L19.7726 2.58065L19.8049 5.70968Z" fill="black"/>
</g>
<defs>
<clipPath id="clip0_327_1264">
<rect width="24" height="24" fill="white"/>
</clipPath>
</defs>
</svg>
