<svg width="24" height="24" viewBox="0 0 24 24" fill="none" xmlns="http://www.w3.org/2000/svg">
<g clip-path="url(#clip0_327_1272)">
<path d="M24 4V2.4C24 1.8 23.7 1.2 23.3 0.7C22.8 0.3 22.2 0 21.6 0H20C19.4 0 18.8 0.3 18.3 0.7C17.8 1.2 17.6 1.8 17.6 2.4H6.4C6.4 1.8 6.1 1.2 5.7 0.7C5.2 0.3 4.6 0 4 0H2.4C1.8 0 1.2 0.3 0.7 0.7C0.3 1.2 0 1.8 0 2.4V4C0 4.6 0.3 5.2 0.7 5.7C1.2 6.2 1.8 6.4 2.4 6.4V17.6C1.8 17.6 1.2 17.9 0.7 18.3C0.3 18.8 0 19.4 0 20V21.6C0 22.2 0.3 22.8 0.7 23.3C1.2 23.7 1.8 24 2.4 24H4C4.6 24 5.2 23.7 5.7 23.3C6.2 22.8 6.4 22.2 6.4 21.6H17.6C17.6 22.2 17.9 22.8 18.3 23.3C18.8 23.8 19.4 24 20 24H21.6C22.2 24 22.8 23.7 23.3 23.3C23.8 22.8 24 22.2 24 21.6V20C24 19.4 23.7 18.8 23.3 18.3C22.8 17.8 22.2 17.6 21.6 17.6V6.4C22.2 6.4 22.8 6.1 23.3 5.7C23.7 5.2 24 4.6 24 4ZM19.4 2.5C19.4 2.3 19.5 2.1 19.6 2C19.7 1.9 19.9 1.8 20.1 1.8H21.5C21.7 1.8 21.9 1.9 22 2C22.1 2.1 22.2 2.3 22.2 2.5V3.9C22.2 4.1 22.1 4.3 22 4.4C21.9 4.5 21.7 4.6 21.5 4.6H20.1C19.9 4.6 19.7 4.5 19.6 4.4C19.5 4.3 19.4 4.1 19.4 3.9V2.5ZM1.8 3.9V2.5C1.8 2.3 1.8 2.1 2 2C2.1 1.9 2.3 1.8 2.5 1.8H3.9C4.1 1.8 4.3 1.9 4.4 2C4.5 2.1 4.6 2.3 4.6 2.5V3.9C4.6 4.1 4.5 4.3 4.4 4.4C4.3 4.6 4.1 4.6 3.9 4.6H2.5C2.3 4.6 2.1 4.6 2 4.4C1.8 4.3 1.8 4.1 1.8 3.9ZM4.6 21.5C4.6 21.7 4.5 21.9 4.4 22C4.3 22.1 4.1 22.2 3.9 22.2H2.5C2.3 22.2 2.1 22.1 2 22C1.9 21.9 1.8 21.7 1.8 21.5V20.1C1.8 19.9 1.9 19.7 2 19.6C2.1 19.5 2.3 19.4 2.5 19.4H3.9C4.1 19.4 4.3 19.5 4.4 19.6C4.5 19.7 4.6 19.9 4.6 20.1V21.5ZM22.2 20.1V21.5C22.2 21.7 22.1 21.9 22 22C21.9 22.1 21.7 22.2 21.5 22.2H20.1C19.9 22.2 19.7 22.1 19.6 22C19.5 21.9 19.4 21.7 19.4 21.5V20.1C19.4 19.9 19.5 19.7 19.6 19.6C19.7 19.5 19.9 19.4 20.1 19.4H21.5C21.7 19.4 21.9 19.5 22 19.6C22.1 19.7 22.2 19.9 22.2 20.1ZM19.8 17.5C19.2 17.5 18.6 17.7 18.1 18.2C17.7 18.6 17.4 19.2 17.4 19.9H6.4C6.4 19.3 6.2 18.7 5.7 18.2C5.3 17.8 4.7 17.5 4 17.5V6.5C4.6 6.5 5.2 6.3 5.7 5.8C6.1 5.4 6.4 4.8 6.4 4.1H17.4C17.4 4.7 17.6 5.3 18.1 5.8C18.5 6.2 19.1 6.5 19.8 6.5V17.5ZM16.8 8C16.8 8.4 16.7 8.6 16.6 8.7C16.5 8.8 16.2 9 16 9H12.9V16C12.9 16.3 12.7 16.6 12.4 16.7C12.2 16.8 11.8 16.8 11.6 16.7C11.4 16.6 11.1 16.3 11.1 16V9H8C7.7 9 7.5 8.8 7.3 8.6C7.2 8.4 7.2 7.9 7.3 7.6C7.5 7.4 7.7 7.2 8 7.2H16C16.2 7.2 16.4 7.3 16.6 7.4C16.7 7.6 16.8 7.8 16.8 8Z" fill="black"/>
</g>
<defs>
<clipPath id="clip0_327_1272">
<rect width="24" height="24" fill="white"/>
</clipPath>
</defs>
</svg>
