<svg width="24" height="24" viewBox="0 0 24 24" fill="none" xmlns="http://www.w3.org/2000/svg">
<g clip-path="url(#clip0_327_1060)">
<path d="M23.9667 6.77457C23.9667 6.06489 23.5151 5.51651 22.9345 5.51651H12.2571L9.86996 1.96812C9.67641 1.74231 9.38609 1.61328 9.12802 1.61328H1.09577C0.515121 1.61328 0.03125 2.19393 0.03125 2.93586V20.9681C0.03125 21.6778 0.515121 22.2262 1.09577 22.2907H22.9345C23.4183 22.2907 23.87 21.8713 23.9667 21.2907C23.9667 7.06489 23.999 15.2584 23.999 8.45199L23.9667 6.77457ZM22.2893 7.2907V20.581L1.67641 20.5165V3.2907L8.86996 3.38747L11.3538 7.06489C11.4829 7.22618 11.6764 7.32296 11.8377 7.32296H22.2893V7.2907Z" fill="black"/>
</g>
<defs>
<clipPath id="clip0_327_1060">
<rect width="24" height="24" fill="white"/>
</clipPath>
</defs>
</svg>
