<svg width="24" height="24" viewBox="0 0 24 24" fill="none" xmlns="http://www.w3.org/2000/svg">
<g clip-path="url(#clip0_327_1301)">
<path d="M23.9022 9.5487L19.7087 2.16161C19.5474 1.90354 19.2571 1.67773 18.9345 1.67773H5.06351C4.74093 1.67773 4.48286 1.83902 4.28931 2.16161L0.128024 9.5487C0.0635081 9.70999 0.03125 9.87128 0.03125 10.0326V21.3874C0.03125 21.9035 0.450605 22.3229 0.902218 22.3229H23.128C23.6119 22.3229 23.999 21.9035 23.999 21.3874V10.0326C23.999 9.83902 23.9667 9.67773 23.9022 9.5487ZM2.2248 9.19386L5.51512 3.29064L11.128 3.35515V9.25838L2.2248 9.19386ZM12.9022 9.25838V3.38741H18.5474L21.6442 9.29064H12.9022V9.25838ZM22.3216 10.9681V20.6455H1.70867V10.9681H22.3216Z" fill="black"/>
</g>
<defs>
<clipPath id="clip0_327_1301">
<rect width="24" height="24" fill="white"/>
</clipPath>
</defs>
</svg>
