<svg width="24" height="24" viewBox="0 0 24 24" fill="none" xmlns="http://www.w3.org/2000/svg">
<g clip-path="url(#clip0_327_866)">
<path d="M12.2258 24C11.9032 24 11.6129 23.7419 11.6129 23.4194V23.3871V20.6452H5.03226C4.45161 20.6452 4 20.1935 4 19.6129V1.03226C4 0.451613 4.45161 0 5.03226 0H16C16.2581 0 16.5484 0.0967742 16.7097 0.290323L20.6129 4.19355C20.8064 4.3871 20.9032 4.64516 20.9032 4.90323V19.5806C20.9032 20.1613 20.4516 20.6129 19.871 20.6129H13.2581V23.3548C13.2581 23.7097 12.9677 24 12.6452 24H12.2258ZM19.2258 18.9032V6.93548H15.0323C14.4516 6.93548 14 6.48387 14 5.93548V1.74194H5.70968V18.9355H11.6129V16.4194H9.96774C9.6129 16.4194 9.32258 16.129 9.32258 15.7742C9.32258 15.6452 9.3871 15.5161 9.45161 15.3871L12 12C12.2258 11.7419 12.5806 11.7097 12.871 11.9032C12.9032 11.9355 15.4516 15.3871 15.4516 15.3871C15.6774 15.6774 15.6129 16.0645 15.3226 16.2903C15.2258 16.3548 15.0968 16.4194 14.9677 16.4194H13.2903V18.9355L19.2258 18.9032ZM15.9032 5.03226H18.8387L15.9032 2.09677V5.03226Z" fill="black"/>
</g>
<defs>
<clipPath id="clip0_327_866">
<rect width="24" height="24" fill="white"/>
</clipPath>
</defs>
</svg>
