<svg width="24" height="24" viewBox="0 0 24 24" fill="none" xmlns="http://www.w3.org/2000/svg">
<g clip-path="url(#clip0_327_1309)">
<path d="M9 0C4.02944 0 0 4.02944 0 9C0 13.7134 3.63678 17.5812 8.25 17.9688C8.09114 17.3399 8 16.6782 8 16C8 11.5817 11.5817 8 16 8C16.6782 8 17.3399 8.09114 17.9688 8.25C17.5812 3.63678 13.7134 0 9 0Z" fill="url(#paint0_linear_327_1309)"/>
<path d="M9 2C5.13401 2 2 5.13401 2 9C2 12.5248 4.61003 15.419 8 15.9062C8.0507 11.5636 11.5636 8.0507 15.9062 8C15.419 4.61003 12.5248 2 9 2Z" fill="url(#paint1_linear_327_1309)"/>
<path fill-rule="evenodd" clip-rule="evenodd" d="M24 17C24.0003 17.9194 23.8194 18.8298 23.4677 19.6793C23.116 20.5288 22.6005 21.3007 21.9504 21.9509C21.3004 22.6012 20.5286 23.1169 19.6792 23.4688C18.8298 23.8207 17.9194 24.0019 17 24.0019C16.0806 24.0019 15.1702 23.8207 14.3208 23.4688C13.4714 23.1169 12.6996 22.6012 12.0496 21.9509C11.3995 21.3007 10.884 20.5288 10.5323 19.6793C10.1806 18.8298 9.99975 17.9194 10 17C9.99975 16.0805 10.1806 15.1701 10.5323 14.3206C10.884 13.4711 11.3995 12.6992 12.0496 12.049C12.6996 11.3988 13.4714 10.883 14.3208 10.5311C15.1702 10.1792 16.0806 9.99805 17 9.99805C17.9194 9.99805 18.8298 10.1792 19.6792 10.5311C20.5286 10.883 21.3004 11.3988 21.9504 12.049C22.6005 12.6992 23.116 13.4711 23.4677 14.3206C23.8194 15.1701 24.0003 16.0805 24 17Z" fill="url(#paint2_linear_327_1309)"/>
<path fill-rule="evenodd" clip-rule="evenodd" d="M21.9611 17.0404C21.9612 17.6972 21.832 18.3475 21.5808 18.9543C21.3296 19.561 20.9614 20.1124 20.4971 20.5768C20.0327 21.0413 19.4815 21.4097 18.8748 21.6611C18.268 21.9124 17.6177 22.0418 16.961 22.0418C16.3043 22.0418 15.654 21.9124 15.0472 21.6611C14.4405 21.4097 13.8893 21.0413 13.4249 20.5768C12.9606 20.1124 12.5923 19.561 12.3412 18.9543C12.09 18.3475 11.9608 17.6972 11.9609 17.0404C11.9608 16.3837 12.09 15.7334 12.3412 15.1266C12.5923 14.5198 12.9606 13.9684 13.4249 13.504C13.8893 13.0396 14.4405 12.6712 15.0472 12.4198C15.654 12.1684 16.3043 12.0391 16.961 12.0391C17.6177 12.0391 18.268 12.1684 18.8748 12.4198C19.4815 12.6712 20.0327 13.0396 20.4971 13.504C20.9614 13.9684 21.3296 14.5198 21.5808 15.1266C21.832 15.7334 21.9612 16.3837 21.9611 17.0404Z" fill="url(#paint3_linear_327_1309)" stroke="url(#paint4_linear_327_1309)" stroke-width="1.5"/>
<path d="M9 4.375C6.44293 4.375 4.375 6.44293 4.375 9C4.375 11.3545 6.13152 13.2693 8.40625 13.5625C9.19231 11.1104 11.1104 9.19231 13.5625 8.40625C13.2693 6.13152 11.3545 4.375 9 4.375Z" fill="url(#paint5_linear_327_1309)"/>
</g>
<defs>
<linearGradient id="paint0_linear_327_1309" x1="-1.6" y1="8.99997" x2="19.6" y2="8.99997" gradientUnits="userSpaceOnUse">
<stop stop-color="#76A1F0"/>
<stop offset="1" stop-color="#6B90D5"/>
</linearGradient>
<linearGradient id="paint1_linear_327_1309" x1="1.34906" y1="9.00009" x2="16.6509" y2="9.00009" gradientUnits="userSpaceOnUse">
<stop stop-color="#BBE0F7"/>
<stop offset="1" stop-color="#82B4FB"/>
</linearGradient>
<linearGradient id="paint2_linear_327_1309" x1="10" y1="17" x2="24" y2="17" gradientUnits="userSpaceOnUse">
<stop stop-color="#90C50E"/>
<stop offset="1" stop-color="#70A034"/>
</linearGradient>
<linearGradient id="paint3_linear_327_1309" x1="11.9609" y1="17.0404" x2="21.9611" y2="17.0404" gradientUnits="userSpaceOnUse">
<stop stop-color="#B3E810"/>
<stop offset="1" stop-color="#90C60D"/>
</linearGradient>
<linearGradient id="paint4_linear_327_1309" x1="12.0234" y1="16.6967" x2="21.836" y2="16.8279" gradientUnits="userSpaceOnUse">
<stop stop-color="#D9F991"/>
<stop offset="1" stop-color="#A2D22F"/>
</linearGradient>
<linearGradient id="paint5_linear_327_1309" x1="3.93947" y1="9.00006" x2="14.0605" y2="9.00006" gradientUnits="userSpaceOnUse">
<stop stop-color="#95BFF8"/>
<stop offset="1" stop-color="#7CA4EB"/>
</linearGradient>
<clipPath id="clip0_327_1309">
<rect width="24" height="24" fill="white"/>
</clipPath>
</defs>
</svg>
