<svg width="24" height="24" viewBox="0 0 24 24" fill="none" xmlns="http://www.w3.org/2000/svg">
<g clip-path="url(#clip0_327_1333)">
<path d="M11.9988 0.0644531C2.77299 0.0644531 -4.74314 11.5806 3.54718 20.5161C5.9988 22.9677 9.03105 24.0645 11.9988 24.0322C14.9665 24.0645 17.9988 22.9999 20.4504 20.5161C28.7407 11.5806 21.2246 0.0644531 11.9988 0.0644531ZM22.2569 11.1935H17.8052C17.7407 9.83865 17.4827 8.58058 17.1923 7.22574C18.1601 6.77413 19.0311 6.16123 19.773 5.41929C21.1601 7.09671 22.0956 9.0322 22.2569 11.1935ZM18.7085 4.41929C18.1278 4.93542 17.4827 5.38703 16.8052 5.77413C16.4827 4.54832 15.9343 3.41929 15.2246 2.35478C16.5149 2.80639 17.7407 3.48381 18.7085 4.41929ZM11.9988 11.2257H7.64396C7.67622 10.0645 7.90202 8.99994 8.12783 7.83865C9.38589 8.29026 10.6762 8.51607 11.9988 8.51607C13.3214 8.51607 14.6117 8.29026 15.8698 7.83865C16.0956 8.99994 16.3214 10.0645 16.3536 11.2257H11.9988ZM16.2569 12.9032C16.2246 14.0645 16.0956 15.1612 15.8698 16.2903C14.6117 15.8386 13.3214 15.6128 11.9988 15.6128C10.6762 15.6128 9.38589 15.8386 8.12783 16.2903C7.90202 15.1612 7.77299 14.0645 7.74073 12.9032H11.9988H16.2569ZM11.9988 1.83865C13.2569 1.83865 14.5149 3.258 15.4504 6.12897C15.4504 6.19348 15.5149 6.29026 15.5149 6.38703C14.3859 6.83865 13.1923 7.03219 11.9988 7.03219C10.8052 7.03219 9.6117 6.80639 8.48267 6.38703C8.48267 6.29026 8.54718 6.19348 8.54718 6.12897C9.48267 3.258 10.7407 1.8709 11.9988 1.83865ZM8.77299 2.35478C8.06331 3.41929 7.51493 4.54832 7.19234 5.77413C6.51493 5.38703 5.86976 4.93542 5.28912 4.41929C6.25686 3.48381 7.48267 2.80639 8.77299 2.35478ZM4.2246 5.41929C4.96654 6.16123 5.83751 6.77413 6.80525 7.22574C6.51493 8.58058 6.25686 9.83865 6.19235 11.1935H1.74073C1.90202 9.0322 2.83751 7.09671 4.2246 5.41929ZM4.03105 18.4193C2.70847 16.8064 1.93428 14.9354 1.80525 12.8386H6.25686C6.28912 14.1935 6.45041 15.5161 6.74073 16.8386C5.83751 17.3225 4.96654 17.9354 4.19235 18.6451L4.03105 18.4193ZM5.2246 19.6774C5.80525 19.1612 6.45041 18.6774 7.12783 18.2903L7.16009 18.3548C7.51493 19.5806 8.06331 20.7096 8.74073 21.7096C7.45041 21.258 6.25686 20.5806 5.2246 19.6774ZM11.9988 22.258C10.6762 22.2903 9.35364 20.7741 8.45041 17.7096C9.6117 17.258 10.8052 17.0645 11.9988 17.0645C13.1923 17.0645 14.3859 17.2903 15.5472 17.7096C14.644 20.7741 13.3214 22.2903 11.9988 22.258ZM15.2569 21.7096C15.9343 20.7096 16.4827 19.5806 16.8375 18.3548L16.8698 18.2903C17.5472 18.6774 18.1923 19.1612 18.773 19.6774C17.7407 20.5806 16.5472 21.258 15.2569 21.7096ZM19.9665 18.4193L19.8052 18.6451C19.0311 17.9354 18.1601 17.3225 17.2569 16.8386C17.5472 15.5161 17.7085 14.1935 17.7407 12.8386H22.1923C22.0633 14.9354 21.2891 16.8064 19.9665 18.4193Z" fill="black"/>
</g>
<defs>
<clipPath id="clip0_327_1333">
<rect width="24" height="24" fill="white"/>
</clipPath>
</defs>
</svg>
