<svg width="24" height="24" viewBox="0 0 24 24" fill="none" xmlns="http://www.w3.org/2000/svg">
<g clip-path="url(#clip0_327_847)">
<path d="M24.0326 11.5484C23.9036 10.9677 23.581 10.4516 23.1294 10.0968L23.0004 10C22.6778 9.83871 22.3552 9.70968 21.9681 9.70968C21.8068 9.70968 21.6133 9.74193 21.4842 9.77419C20.9036 9.90322 20.3875 10.2258 20.0326 10.7097C19.9036 10.871 19.8068 11 19.7423 11.1935L16.2907 11.2258C16.2262 10.871 16.1294 10.6129 15.9359 10.2903C15.7101 9.80645 15.4842 9.48387 15.0972 9.12903L16.0004 7.51613C16.1294 7.54839 16.2262 7.54839 16.3552 7.54839C17.6133 7.54839 18.5165 6.41935 18.5165 5.16129C18.5165 3.90323 17.4842 2.87097 16.2262 2.87097C14.9681 2.87097 13.9359 3.90323 13.9359 5.16129C13.9359 5.77419 14.0649 6.32258 14.5165 6.77419L13.6455 8.29032C13.2584 8.16129 12.9036 8.09677 12.4842 8.09677C12.0326 8.09677 11.6455 8.19355 11.2262 8.32258L8.58102 3.70968C8.71005 3.58065 8.74231 3.41935 8.83909 3.29032L8.87134 3.22581C9.12941 2.70968 9.16167 2.12903 9.00038 1.58065C8.83909 1.03226 8.48425 0.580645 8.00038 0.322581L7.87134 0.258065L7.80683 0.225806C7.51651 0.0967742 7.16167 0 6.87134 0C6.45199 0 6.03264 0.129032 5.6778 0.354839C5.2907 0.580645 5.03264 0.903226 4.80683 1.29032C4.54876 1.83871 4.48425 2.45161 4.6778 3C4.87135 3.54839 5.2907 4.03226 5.80683 4.29032C6.09715 4.41935 6.41973 4.51613 6.71005 4.51613C6.87134 4.51613 7.03264 4.58065 7.16167 4.54839L9.80683 9.16129C9.25844 9.6129 8.87134 10.129 8.64554 10.7742C8.48425 11.2903 8.38747 11.7097 8.41973 12.2581L5.25844 13.129C4.54876 11.7742 2.87135 11.3548 1.51651 12.0645C0.161668 12.7742 -0.386719 14.4516 0.322958 15.8065C1.03264 17.1613 2.71005 17.7097 4.06489 17C4.93586 16.5484 5.61328 15.7419 5.64554 14.7742L8.93586 13.871L8.96812 13.9032C9.19392 14.3871 9.32296 14.6452 9.71005 14.9677L7.9036 18.129C7.71005 18.0645 7.48425 18.0323 7.25844 18.0323C5.77457 18.0323 4.71005 19.2903 4.71005 20.8065C4.71005 21.0323 4.74231 21.2258 4.80683 21.4516C5.16167 22.8387 6.54876 23.6774 7.93586 23.3226C8.16167 23.2581 8.38747 23.1935 8.58102 23.0323C8.96812 22.8065 9.32296 22.4516 9.54876 22.0323C9.83909 21.5161 9.93586 20.9355 9.9036 20.3548C9.80683 19.8064 9.71005 19.3548 9.35522 18.9355L11.1617 15.8065C11.5488 15.9355 11.8713 15.9677 12.2584 15.9677C12.3875 15.9677 12.4842 15.9677 12.6133 15.9677L13.6455 19.8065C13.2584 20.0968 12.9359 20.4839 12.7746 20.9677C12.581 21.5484 12.6133 22.1613 12.8713 22.6774C13.1294 23.2258 13.581 23.6129 14.1294 23.8387C14.3552 23.9355 14.581 23.9677 14.8391 23.9677C15.1939 23.9677 15.5165 23.871 15.8068 23.7419C16.3552 23.4839 16.7423 23 16.9681 22.4516C17.0326 22.2903 17.0649 22.129 17.0972 21.9677C17.1617 21.5484 17.0649 21.129 16.9036 20.7742C16.6455 20.2258 16.2262 19.8387 15.6778 19.6129C15.4842 19.5484 15.2584 19.5161 15.0649 19.4839L14.0326 15.6452L14.0972 15.6129C14.5488 15.3871 14.9681 15.0645 15.2907 14.7097C15.6455 14.3226 15.9036 13.9032 16.0649 13.4194V13.3871C16.0972 13.2581 16.1294 13.129 16.1939 13V12.9355L16.2262 12.9032L19.7101 12.871C19.8391 13.3226 20.1294 13.6129 20.5488 13.9032C20.9359 14.1613 21.3875 14.2903 21.8068 14.2903C22.5488 14.2903 23.2584 13.9032 23.6778 13.2903C24.0004 12.7419 24.1617 12.0968 24.0326 11.5484ZM15.2262 20.871C15.4197 20.9355 15.6455 21.1613 15.7101 21.3226C15.8068 21.5161 15.8391 21.7419 15.7423 21.9677C15.6455 22.1613 15.5165 22.3548 15.323 22.4194C15.1939 22.4839 15.1294 22.4839 15.0004 22.5161C14.9036 22.5161 14.8068 22.4839 14.7101 22.4516C14.5165 22.3871 14.3552 22.2258 14.2584 22.0645C14.1617 21.871 14.1294 21.6452 14.2262 21.4194C14.3552 21.0645 14.6133 20.8387 15.0004 20.8387C15.0972 20.8387 15.1294 20.8387 15.2262 20.871ZM14.5165 12.7419C14.3552 13.3226 13.9359 13.7742 13.4197 14.0323C12.7423 14.3871 11.9359 14.3548 11.2907 13.9677C10.9036 13.7419 10.581 13.3871 10.4197 13C10.1617 12.4516 10.1294 11.8387 10.2907 11.2903C10.452 10.7097 10.8713 10.2581 11.4197 10C11.7423 9.87097 12.0649 9.80645 12.4197 9.80645C12.6455 9.80645 12.9036 9.83871 13.1294 9.93548C13.6778 10.0968 14.1294 10.5161 14.3875 11.0323C14.6778 11.5484 14.7423 12.1613 14.5165 12.7419ZM4.00038 14.5806C4.00038 15.2258 3.48425 15.7419 2.83909 15.7419C2.19393 15.7419 1.6778 15.2258 1.6778 14.5806C1.6778 13.9355 2.19393 13.4194 2.83909 13.4194C3.48425 13.4194 4.00038 13.9355 4.00038 14.5806ZM16.2262 4.54839C16.581 4.54839 16.8391 4.83871 16.8391 5.16129C16.8391 5.48387 16.5488 5.77419 16.2262 5.77419C15.9036 5.77419 15.6133 5.48387 15.6133 5.16129C15.6133 4.83871 15.8713 4.54839 16.2262 4.54839Z" fill="black"/>
</g>
<defs>
<clipPath id="clip0_327_847">
<rect width="24" height="24" fill="white"/>
</clipPath>
</defs>
</svg>
