<svg width="24" height="24" viewBox="0 0 24 24" fill="none" xmlns="http://www.w3.org/2000/svg">
<g clip-path="url(#clip0_327_1292)">
<path d="M21.4515 4.87097L16.9031 0.322581C16.6773 0.0967742 16.387 0 16.0644 0H3.32245C2.64504 0 2.12891 0.516129 2.12891 1.19355V22.8064C2.12891 23.4839 2.64504 24 3.32245 24H20.645C21.3225 24 21.8386 23.4839 21.8386 22.8064V5.74194C21.7741 5.41935 21.6773 5.09677 21.4515 4.87097ZM15.6128 2.16129L19.645 6.19355H15.6128V2.16129ZM3.83858 22.3226V1.6129H13.8063V6.64516C13.8063 7.35484 14.3547 7.87097 15.0321 7.87097H20.0644V22.2903L3.83858 22.3226Z" fill="black"/>
</g>
<defs>
<clipPath id="clip0_327_1292">
<rect width="24" height="24" fill="white"/>
</clipPath>
</defs>
</svg>
