<svg width="24" height="24" viewBox="0 0 24 24" fill="none" xmlns="http://www.w3.org/2000/svg">
<g clip-path="url(#clip0_327_1071)">
<path d="M23.9362 20.8068L21.42 16.0003C22.162 14.9681 22.5168 13.71 22.5168 12.3229C22.5168 8.64548 19.5491 5.67773 15.8717 5.67773C12.1942 5.67773 9.2265 8.64548 9.2265 12.3229C9.2265 13.6455 9.67811 14.9681 10.3233 16.0003L7.80715 20.8713C7.64586 21.0971 7.74263 21.4519 7.87166 21.6777C8.03295 21.9035 8.32327 21.9681 8.6136 21.9035L11.0652 21.3229L12.2588 23.0971C12.4846 23.2584 12.7104 23.3874 12.9362 23.3874H13.0007C13.291 23.3874 13.5168 23.2261 13.5813 22.9358L15.5168 18.8713H16.2588L18.1942 22.9358C18.3555 23.1616 18.5491 23.2906 18.7749 23.3874H18.8394C19.0652 23.3874 19.291 23.2261 19.42 23.0971L20.6136 21.3229L23.0652 21.9035C23.3555 21.9681 23.6459 21.9035 23.8071 21.6132C24.0007 21.3874 24.0652 21.0971 23.9362 20.8068ZM12.8394 21.1616L12.0975 20.0648C11.9362 19.7745 11.5813 19.71 11.291 19.7745L9.96844 20.1293L11.4523 17.2584C12.1942 17.9358 13.0652 18.4519 14.033 18.7423L12.8394 21.1616ZM15.8717 17.1939C13.162 17.1939 11.0007 15.0326 11.0007 12.3229C11.0007 9.61322 13.162 7.45193 15.8717 7.45193C18.5813 7.45193 20.7426 9.61322 20.7426 12.3229C20.7426 15.0326 18.5813 17.1939 15.8717 17.1939ZM20.4523 19.6777C20.162 19.6132 19.8717 19.7423 19.6459 19.9681L18.9039 21.0648L17.7104 18.5487C18.6781 18.2584 19.5491 17.7423 20.291 17.0648L21.7749 19.9358L20.4523 19.6777Z" fill="black"/>
<path d="M6.03226 18.2902H1.70968V7.99987V6.29019V2.87084H3.83871H17.2581H18.9032V4.06439V4.09664C18.9032 4.58052 19.2903 4.96761 19.7742 4.96761C20.2581 4.96761 20.6452 4.58052 20.6452 4.09664V4.06439V2.83858C20.6452 1.9031 19.871 1.1289 18.9355 1.1289H18.5484H16.3548H14.6452H6H4.29032H2.54839H1.70968C0.774194 1.09664 0 1.87084 0 2.83858V18.2902C0 19.2257 0.774194 19.9999 1.70968 19.9999H6.03226C6.48387 19.9676 6.87097 19.6128 6.87097 19.1612C6.83871 18.6773 6.48387 18.3225 6.03226 18.2902Z" fill="black"/>
</g>
<defs>
<clipPath id="clip0_327_1071">
<rect width="24" height="24" fill="white"/>
</clipPath>
</defs>
</svg>
