<svg width="24" height="24" viewBox="0 0 24 24" fill="none" xmlns="http://www.w3.org/2000/svg">
<path d="M20 1.22559H4C1.77419 1.22559 0 3.03204 0 5.22559V16.0643C0 18.2901 1.80645 20.032 4 20.032H6.90323L11.3226 23.774C11.7097 24.0643 12.2258 24.0643 12.6129 23.774L17.0645 20.032H19.9677C22.1935 20.032 23.9677 18.2256 23.9677 16.032V5.22559C23.9677 2.99978 22.2258 1.22559 20 1.22559ZM22.2903 4.99978V16.1611C22.2903 17.2901 21.3871 18.1933 20.2581 18.1933H17.2903C16.8064 18.1933 16.3548 18.3546 15.9677 18.6772L12.0323 21.9675L8.06452 18.6772C7.70968 18.3546 7.22581 18.1933 6.74194 18.1933H3.80645C2.67742 18.1933 1.77419 17.2901 1.77419 16.1611V4.99978C1.77419 3.87075 2.67742 2.96752 3.80645 2.96752H20.1935C21.3226 2.96752 22.2903 3.87075 22.2903 4.99978Z" fill="black"/>
<path d="M4.80645 11.4187C4.83871 11.4187 15.2581 11.4187 15.2581 11.4187C15.7097 11.4187 16.0968 11.0316 16.0968 10.58C16.0968 10.1284 15.7097 9.7413 15.2581 9.7413H4.90323C4.45161 9.70904 4.03226 10.0639 4 10.5155C4 10.9994 4.35484 11.3865 4.80645 11.4187Z" fill="black"/>
<path d="M4.86983 8.03191H10.0634C10.515 7.99965 10.8698 7.61256 10.8376 7.12869C10.8053 6.70933 10.4827 6.35449 10.0634 6.35449H4.90208C4.45047 6.35449 4.06337 6.74159 4.09563 7.22546C4.12789 7.64481 4.45047 7.99965 4.86983 8.03191Z" fill="black"/>
<path d="M15.2249 13.0968H4.87011C4.41849 13.0645 3.99914 13.4193 3.96688 13.871C3.93462 14.3226 4.28946 14.7419 4.74107 14.7742C4.77333 14.7742 15.1927 14.7742 15.1927 14.7742C15.6766 14.7742 16.0314 14.4193 16.0314 13.9355C16.0314 13.4516 15.7088 13.0968 15.2249 13.0968Z" fill="black"/>
</svg>
