<svg width="24" height="24" viewBox="0 0 24 24" fill="none" xmlns="http://www.w3.org/2000/svg">
<g clip-path="url(#clip0_327_1280)">
<path d="M21.4515 4.87097L16.9031 0.322581C16.6773 0.0967742 16.387 0 16.0644 0H3.32245C2.64504 0 2.12891 0.516129 2.12891 1.19355V22.8064C2.12891 23.4839 2.64504 24 3.32245 24H20.645C21.3225 24 21.8386 23.4839 21.8386 22.8064V5.74194C21.7741 5.41935 21.6773 5.09677 21.4515 4.87097ZM15.6128 2.16129L19.645 6.19355H15.6128V2.16129ZM3.83858 22.3226V1.6129H13.8063V6.64516C13.8063 7.35484 14.3547 7.87097 15.0321 7.87097H20.0644V22.2903L3.83858 22.3226Z" fill="black"/>
<path d="M17.5156 13.8711H6.35433C5.90272 13.8711 5.51562 14.2582 5.51562 14.7098C5.51562 15.1614 5.90272 15.5485 6.35433 15.5485H17.5156C17.9672 15.5485 18.3543 15.1614 18.3543 14.7098C18.3866 14.2582 17.9995 13.8711 17.5156 13.8711Z" fill="black"/>
<path d="M17.5156 17.2578H6.35433C5.90272 17.2578 5.51562 17.6449 5.51562 18.0965C5.51562 18.5481 5.90272 18.9352 6.35433 18.9352H17.5156C17.9672 18.9352 18.3543 18.5481 18.3543 18.0965C18.3543 17.6449 17.9995 17.2578 17.5156 17.2578Z" fill="black"/>
<path d="M6.38558 12.194H13.1275C13.5791 12.194 13.9662 11.8069 13.9662 11.3553C13.9662 10.9037 13.5791 10.5166 13.1275 10.5166H6.38558C5.93397 10.5166 5.54688 10.9037 5.54688 11.3553C5.54688 11.8069 5.93397 12.194 6.38558 12.194Z" fill="black"/>
</g>
<defs>
<clipPath id="clip0_327_1280">
<rect width="24" height="24" fill="white"/>
</clipPath>
</defs>
</svg>
