<svg width="24" height="24" viewBox="0 0 24 24" fill="none" xmlns="http://www.w3.org/2000/svg">
<path d="M20.0341 10.4202C19.4858 10.4202 19.1954 10.8718 19.1954 11.4202V18.775H4.67931V4.29112H13.6471C14.9696 4.32338 14.9696 2.6137 13.6471 2.64596H4.06641C3.51802 2.64596 3.06641 3.09757 3.06641 3.64596V19.4847C3.06641 20.0331 3.48576 20.4847 4.03415 20.4847H19.8406C20.389 20.4847 20.8406 20.0331 20.8406 19.4847V11.4524C20.8729 10.8718 20.5825 10.4202 20.0341 10.4202Z" fill="black"/>
<path d="M9.16215 9.96812C8.71054 9.64554 8.09763 9.74231 7.74279 10.1617C7.42021 10.6133 7.51699 11.2584 7.93634 11.6133L11.0009 13.8713C11.3557 14.1294 11.7105 14.2262 12.0976 13.8713C13.517 12.3552 19.2267 5.87135 20.6138 4.38747C20.9041 4.06489 20.9686 3.61328 20.8073 3.22618C20.646 2.83909 20.2589 2.61328 19.8396 2.61328C19.5815 2.61328 19.3234 2.74231 19.1621 2.93586C17.7428 4.45199 12.8073 10.1617 11.4847 11.6133L9.16215 9.96812Z" fill="black"/>
</svg>
